<?xml version="1.0" encoding="utf-8"?>
<!-- Generator: Adobe Illustrator 16.0.0, SVG Export Plug-In . SVG Version: 6.00 Build 0)  -->
<!DOCTYPE svg PUBLIC "-//W3C//DTD SVG 1.1//EN" "http://www.w3.org/Graphics/SVG/1.1/DTD/svg11.dtd">
<svg version="1.1" xmlns="http://www.w3.org/2000/svg" xmlns:xlink="http://www.w3.org/1999/xlink" x="0px" y="0px" width="512px"
	 height="512px" viewBox="0 0 512 512" enable-background="new 0 0 512 512" xml:space="preserve">
<g id="Layer_1">
	<g>
		<rect x="44.424" y="42.124" fill-rule="evenodd" clip-rule="evenodd" fill="#E9E9EB" width="335.909" height="461.875"/>
		<rect x="44.424" y="42.124" fill-rule="evenodd" clip-rule="evenodd" fill="#5385C5" width="335.909" height="62.981"/>
		<text transform="matrix(1 0 0 1 69.3784 93.5776)" fill="#E9E9EB" font-family="'Arial-BoldMT'" font-size="50.5098">T</text>
		<text transform="matrix(1 0 0 1 96.4863 93.5776)" fill="#E9E9EB" font-family="'Arial-BoldMT'" font-size="50.5098">AX</text>
		<path fill="#D4D8DD" d="M315.246,403.357c2.812-0.613,5.118-1.954,6.876-4.023c1.788-2.068,2.667-4.497,2.667-7.314
			c0-2.494-0.749-4.657-2.249-6.452c-1.47-1.823-3.905-3.214-7.294-4.181V403.357z M307.086,343.588
			c-2.205,0.786-3.92,2.064-5.217,3.872c-1.283,1.795-1.904,3.769-1.904,5.931c0,1.983,0.577,3.82,1.73,5.521
			c1.168,1.687,2.983,3.064,5.391,4.103V343.588z M70.242,171.208h149.137v12.469H70.242V171.208z M70.242,201.394h257.068v12.463
			H70.242V201.394z M70.242,227.623h257.068v12.47H70.242V227.623z M70.242,278.128h257.068v12.469H70.242V278.128z M70.242,336.513
			h165.253v12.46H70.242V336.513z M70.242,366.654h165.253v12.463H70.242V366.654z M70.242,404.171h185.882v12.47H70.242V404.171z
			 M70.242,143.984h149.137v12.462H70.242V143.984z M307.086,402.435v-23.47c-7.308-2.09-12.643-5.24-16.03-9.479
			c-3.416-4.252-5.131-9.392-5.131-15.445c0-6.127,1.945-11.287,5.795-15.439c3.849-4.166,8.967-6.565,15.366-7.2v-5.515h8.16v5.515
			c5.983,0.707,10.724,2.739,14.27,6.098c3.519,3.352,5.782,7.827,6.763,13.449l-14.243,1.838c-0.893-4.411-3.156-7.402-6.789-8.967
			v21.89c9.024,2.423,15.166,5.58,18.423,9.421c3.286,3.879,4.916,8.838,4.916,14.898c0,6.762-2.063,12.449-6.171,17.082
			c-4.122,4.636-9.83,7.505-17.168,8.664v10.459h-8.16v-10.351c-6.442-0.778-11.66-3.164-15.698-7.171
			c-4.051-3.993-6.616-9.659-7.756-16.967l14.604-1.717c0.592,2.985,1.729,5.552,3.373,7.72
			C303.252,399.902,305.068,401.461,307.086,402.435z"/>
		<path opacity="0.15" fill-rule="evenodd" clip-rule="evenodd" fill="#272323" d="M260.08,42.124h120.253v195.814
			c-6.617,1.103-13.422,1.671-20.355,1.671c-68.488,0-124.007-55.528-124.007-124.016C235.971,88.094,244.937,62.68,260.08,42.124"
			/>
		<path fill-rule="evenodd" clip-rule="evenodd" fill="#DB4A50" d="M359.978,8.001c59.42,0,107.598,48.177,107.598,107.591
			c0,59.428-48.178,107.597-107.598,107.597c-59.421,0-107.594-48.169-107.594-107.597C252.384,56.179,300.557,8.001,359.978,8.001"
			/>
		<path fill="#FBF0EC" d="M392.528,147.977c0,7.965,0.907,13.299,2.752,15.936c1.399,2.083,3.345,3.115,5.781,3.115
			c2.509,0,4.454-1.002,5.781-3.021c1.858-2.703,2.769-8.064,2.769-16.03c0-7.972-0.881-13.327-2.683-16.03
			c-1.384-2.026-3.358-3.021-5.867-3.021c-2.495,0-4.44,0.995-5.781,3.021C393.436,134.65,392.528,140.005,392.528,147.977
			 M374.248,147.918c0-10.962,2.424-19.079,7.224-24.375c4.827-5.291,11.402-7.937,19.735-7.937c8.404,0,15.005,2.646,19.82,7.937
			c4.815,5.297,7.208,13.413,7.208,24.375c0,11.043-2.393,19.188-7.208,24.486c-4.815,5.291-11.359,7.943-19.59,7.943
			c-8.521,0-15.139-2.652-19.966-7.943C376.672,167.106,374.248,158.962,374.248,147.918z M336.407,180.174h-17.341l65.114-129.321
			h16.982L336.407,180.174z M310.013,83.057c0,7.893,0.91,13.183,2.769,15.886c1.384,1.99,3.33,2.999,5.766,2.999
			c2.523,0,4.484-1.009,5.881-2.999c1.787-2.703,2.667-7.993,2.667-15.886c0-7.885-0.88-13.147-2.667-15.807
			c-1.396-2.046-3.357-3.078-5.881-3.078c-2.436,0-4.382,1.009-5.766,2.999C310.923,69.881,310.013,75.171,310.013,83.057z
			 M291.734,83.057c0-10.935,2.422-19.021,7.236-24.283c4.815-5.27,11.331-7.921,19.561-7.921c8.507,0,15.182,2.623,19.981,7.863
			c4.814,5.241,7.208,13.356,7.208,24.341c0,10.934-2.394,19.021-7.208,24.29c-4.8,5.262-11.359,7.915-19.591,7.915
			c-8.505,0-15.136-2.623-19.951-7.863C294.156,102.158,291.734,94.041,291.734,83.057z"/>
		<rect x="70.242" y="439.532" fill-rule="evenodd" clip-rule="evenodd" fill="#D4D8DD" width="257.068" height="12.462"/>
	</g>
</g>
<g id="Layer_2">
</g>
</svg>
